# xmcd CD database file
#
# Track frame offsets:
#	150
#	18260
#	49002
#	69652
#	94752
#	127807
#	139917
#	162940
#	200165
#	231007
#
# Disc length: 3180 seconds
#
# Revision: 0
# Processed by: cddbd v1.4PL0 Copyright (c) Steve Scherf et al.
# Submitted via: CDex 1.50Beta6
#
DISCID=850c6a0a
DTITLE=George Adams - America
DYEAR=1990
DGENRE=Jazz
TTITLE0=Amerika the beautiful
TTITLE1=tenessee waltz
TTITLE2=motivation
TTITLE3=old folks at home
TTITLE4=gee,baby,ain't I good to You
TTITLE5=Take me out to the ball game
TTITLE6=You are my sunshine
TTITLE7=Georgia on my mind
TTITLE8=Have You thanked America
TTITLE9=The star spangled banner
EXTD=YEAR: 1990
EXTT0=
EXTT1=
EXTT2=
EXTT3=
EXTT4=
EXTT5=
EXTT6=
EXTT7=
EXTT8=
EXTT9=
PLAYORDER=
